<svg xmlns="http://www.w3.org/2000/svg" viewBox="0 0 24 24" fill="currentColor" stroke="none" stroke-width="2"
    stroke-linecap="round" stroke-linejoin="round">
    <path
        d="m13.3334,3.60098l0,17.1471l1.79582,0l0.75424,2.13703l3.18459,-2.13703l3.93584,0l0,-17.1471l-9.6705,0zm7.41375,14.87538l-1.79283,0l-2.24777,1.50849l-0.53276,-1.50849l-0.53875,0l0,-12.53483l5.10911,0l0,12.53483l0.00299,0zm-8.56906,-7.18927l-3.97475,0c0.06285,-1.34387 0.1287,-3.12174 0.19754,-5.17496l3.91788,0l-0.00299,-0.24244c0,-0.01796 -0.00599,-0.43998 -0.06884,-0.87097c-0.06285,-0.44896 -0.19754,-1.04457 -0.62854,-1.04457l-6.5727,0c0.13169,-0.61657 0.46991,-2.08615 0.87995,-2.80747l0.19155,-0.33522l-0.3861,-0.02095c-0.02394,0 -0.58663,-0.02694 -1.23912,0.31726c-1.06851,0.56868 -1.5474,1.68807 -1.75691,2.52612c-0.55072,2.18791 -1.33489,3.70837 -1.66712,4.35786c-0.09877,0.19155 -0.15863,0.30529 -0.18557,0.38311c-0.05387,0.14666 -0.02394,0.29332 0.0838,0.38909c0.31427,0.28434 1.14334,-0.0868 1.15232,-0.08979c0.01796,-0.00898 0.03891,-0.01796 0.06585,-0.02993c0.41603,-0.18856 1.64916,-0.74826 2.08914,-2.52911l1.69705,0c0.02095,0.96376 0.09278,4.14236 0.0868,5.17496l-4.22018,0l-0.06285,0.0449c-0.69139,0.50582 -0.91288,1.8916 -0.92185,1.95146l-0.0419,0.27536l4.99837,0c-0.36814,2.34355 -0.79315,3.3941 -1.01763,3.81313c-0.11074,0.20951 -0.21849,0.41902 -0.32025,0.62255c-0.63752,1.26306 -1.29898,2.56802 -3.7802,4.5973c-0.10775,0.0838 -0.20951,0.23944 -0.14367,0.41005c0.07183,0.18856 0.27835,0.27237 0.73629,0.27237c0.16162,0 0.35318,-0.00898 0.58065,-0.02993c1.49352,-0.13169 3.01698,-0.53875 4.04359,-2.6219c0.50882,-1.05056 0.94879,-2.14601 1.31394,-3.25941l4.08549,4.78886l0.14965,-0.35916c0.02394,-0.05687 0.56868,-1.38578 0.15264,-2.87032l-0.01497,-0.05387l-3.23547,-3.68143l-0.65847,0.49684c0.19155,-0.78118 0.31726,-1.49352 0.37413,-2.12805l4.74995,0l0,-0.23944c0,-1.20021 -0.55371,-1.91255 -0.57466,-1.94248l-0.07183,-0.08979z" />
</svg>